<?xml version="1.0" encoding="UTF-8" standalone="no"?>
<svg
   xmlns:dc="http://purl.org/dc/elements/1.1/"
   xmlns:cc="http://creativecommons.org/ns#"
   xmlns:rdf="http://www.w3.org/1999/02/22-rdf-syntax-ns#"
   xmlns:svg="http://www.w3.org/2000/svg"
   xmlns="http://www.w3.org/2000/svg"
   xmlns:sodipodi="http://sodipodi.sourceforge.net/DTD/sodipodi-0.dtd"
   xmlns:inkscape="http://www.inkscape.org/namespaces/inkscape"
   sodipodi:docname="labview_header.svg"
   inkscape:version="1.0 (4035a4fb49, 2020-05-01)"
   id="svg8"
   version="1.1"
   viewBox="0 0 338.66667 95.250005"
   height="360"
   width="1280">
  <style
     id="style837"></style>
  <defs
     id="defs2" />
  <sodipodi:namedview
     inkscape:document-rotation="0"
     units="px"
     inkscape:window-maximized="1"
     inkscape:window-y="-8"
     inkscape:window-x="-8"
     inkscape:window-height="1017"
     inkscape:window-width="1920"
     fit-margin-bottom="0"
     fit-margin-right="0"
     fit-margin-left="0"
     fit-margin-top="0"
     inkscape:guide-bbox="true"
     showguides="true"
     showgrid="false"
     inkscape:current-layer="layer1"
     inkscape:document-units="mm"
     inkscape:cy="-136.80108"
     inkscape:cx="944.80267"
     inkscape:zoom="0.540625"
     inkscape:pageshadow="2"
     inkscape:pageopacity="0.0"
     borderopacity="1.0"
     bordercolor="#666666"
     pagecolor="#ffffff"
     id="base">
    <sodipodi:guide
       inkscape:locked="false"
       id="guide880"
       orientation="1,0"
       position="14.174952,174.72886" />
    <sodipodi:guide
       inkscape:locked="false"
       id="guide882"
       orientation="1,0"
       position="0.00084172699,146.00267" />
  </sodipodi:namedview>
  <metadata
     id="metadata5">
    <rdf:RDF>
      <cc:Work
         rdf:about="">
        <dc:format>image/svg+xml</dc:format>
        <dc:type
           rdf:resource="http://purl.org/dc/dcmitype/StillImage" />
        <dc:title />
      </cc:Work>
    </rdf:RDF>
  </metadata>
  <g
     transform="translate(274.22256,-91.673783)"
     id="layer1"
     inkscape:groupmode="layer"
     inkscape:label="Ebene 1">
    <rect
       y="91.673782"
       x="-274.22256"
       height="95.25"
       width="338.66666"
       id="rect819"
       style="opacity:1;fill:#ffde00;fill-opacity:1;stroke:none;stroke-width:0.26458338;stroke-linecap:round;stroke-linejoin:round;stroke-miterlimit:4;stroke-dasharray:none;stroke-opacity:1;paint-order:stroke fill markers" />
    <g
       style="stroke-width:1.79422"
       transform="matrix(0.55734504,0,0,0.55734504,-275.69318,105.86932)"
       id="g860">
      <path
         style="fill:#4c4d4f;fill-opacity:1;stroke-width:1.79423"
         d="m 521.59223,29.247814 -3.37343,0.11369 c -2.79887,0.0943 -3.56122,0.2113 -4.4757,0.68678 -1.2483,0.64905 -2.03729,1.63188 -2.60656,3.24528 -0.57582,1.63201 -12.97221,51.11777 -13.36818,53.36522 -0.18587,1.05502 -0.40921,1.91822 -0.4966,1.91822 -0.0873,0 -0.36229,-1.10508 -0.61082,-2.45618 -0.24855,-1.35109 -3.48342,-14.06101 -7.1887,-28.24427 -3.70525,-14.18325 -6.87832,-26.35364 -7.05125,-27.04486 l -0.31419,-1.25677 -3.34243,0.003 -3.34193,0.003 -7.87498,27.57971 c -4.33136,15.16894 -8.07508,28.44343 -8.31937,29.49846 -0.24429,1.05502 -0.51967,1.91823 -0.61185,1.91823 -0.0922,0 -0.31758,-0.98226 -0.50075,-2.18281 -0.37425,-2.45293 -12.82242,-52.20148 -13.42295,-53.64427 -1.05396,-2.53222 -3.04583,-3.43959 -7.55044,-3.43959 h -2.86237 v 2.87838 2.87838 l 1.59938,0.11575 c 2.81567,0.20367 1.9707,-2.25093 10.46552,30.39866 4.1425,15.92165 7.66172,29.45766 7.82071,30.07982 l 0.28887,1.13068 3.96719,-0.0729 3.96722,-0.0729 6.97063,-23.68021 c 3.83384,-13.02411 7.48075,-25.79313 8.1044,-28.37553 0.62362,-2.58241 1.1933,-4.69539 1.26608,-4.69584 0.0728,-4.5e-4 0.50732,1.76824 0.96531,3.93051 0.45802,2.16227 3.78759,14.9642 7.39905,28.44891 l 6.566,24.51788 3.96462,-0.0729 3.9646,-0.0729 7.84553,-29.89792 c 4.31491,-16.44385 7.93702,-30.11072 8.04913,-30.37076 0.30654,-0.7111 1.55488,-1.24695 2.90473,-1.24695 h 1.20353 v -2.94142 z m 15.08951,0.0186 c -0.30139,-0.002 -0.70758,0.60429 -1.24074,1.8185 l -0.77877,1.77405 -0.77306,-1.77405 c -1.05733,-2.42706 -1.61362,-2.42339 -1.83039,0.0119 -0.0874,0.98226 -0.2137,2.29196 -0.28062,2.91042 -0.10657,0.9854 -0.0567,1.12448 0.40257,1.12448 0.44516,0 0.52787,-0.18931 0.55036,-1.25677 0.0145,-0.69122 0.10771,-1.54872 0.20722,-1.90531 0.16497,-0.59125 0.23145,-0.52717 0.75292,0.7276 0.31449,0.75677 0.73237,1.37614 0.92864,1.37614 0.19624,0 0.66622,-0.62508 1.04436,-1.38906 l 0.68784,-1.38906 0.19481,1.91823 c 0.13764,1.35347 0.30168,1.91823 0.55758,1.91823 0.40958,0 0.46387,-1.14239 0.19069,-4.0349 -0.11507,-1.21833 -0.312,-1.82846 -0.61341,-1.83038 z m -287.61033,0.002 v 2.79932 2.79982 h 2.39313 c 2.18823,0 2.44893,0.0553 3.04271,0.64906 l 0.64957,0.64957 v 30.30668 30.30719 h 3.03599 3.03599 l 0.0729,-4.16718 0.0729,-4.16719 0.71054,1.19062 c 2.2982,3.85277 6.48441,6.77323 11.19571,7.81038 4.96512,1.09303 11.07559,-0.0774 15.60782,-2.98948 7.25162,-4.65945 11.1488,-14.73837 9.95238,-25.73952 -1.5105,-13.88912 -9.98272,-22.05532 -22.12062,-21.32169 -5.16694,0.3123 -8.60441,1.76953 -11.93776,5.06119 -1.1816,1.16682 -2.39707,2.59809 -2.70063,3.18017 l -0.55189,1.05833 -0.0114,-11.91659 c -0.0116,-11.82195 -0.0166,-11.92549 -0.60719,-13.09067 -1.02013,-2.01265 -1.6882,-2.23095 -7.14375,-2.33267 z m -98.16042,0.002 v 2.93109 2.93109 h 2.4846 c 2.0516,0 2.59301,0.0877 3.10886,0.50539 l 0.62425,0.50591 0.13229,28.66441 c 0.12953,28.06508 0.14336,28.68346 0.66146,29.56305 0.71105,1.20716 1.6133,1.83688 3.04322,2.1239 0.65463,0.13136 8.2148,0.21955 16.80053,0.19585 15.57261,-0.0429 15.61305,-0.0444 16.70699,-0.62942 1.89328,-1.01254 2.21072,-2.06113 2.21072,-7.30239 v -4.4142 h -3.04271 -3.04271 v 2.36368 c 0,2.88396 -0.23184,3.56621 -1.34358,3.95376 -0.57834,0.20166 -4.4553,0.29714 -12.06594,0.29714 -9.19377,0 -11.37878,-0.0691 -12.13104,-0.38344 -0.50465,-0.21085 -0.94547,-0.41922 -0.97927,-0.46302 -0.0338,-0.0438 -0.12313,-12.99786 -0.19843,-28.78687 -0.13013,-27.28156 -0.16108,-28.7564 -0.62787,-29.69535 -0.27016,-0.54341 -0.925,-1.25778 -1.45521,-1.5875 -0.89642,-0.55744 -1.31217,-0.60556 -5.92522,-0.68626 z m 233.62708,0.0284 v 2.91714 2.91662 h 3.17034 3.17087 l 0.0703,29.17031 c 0.0693,28.62867 0.0806,29.18675 0.59997,30.06845 0.71265,1.20991 1.61591,1.83826 3.04323,2.1177 1.70008,0.33283 31.33974,0.35463 33.10237,0.0243 1.78768,-0.33503 2.58802,-0.90591 3.34346,-2.38436 0.5453,-1.06718 0.59531,-1.52701 0.59531,-5.4746 v -4.31018 h -3.04271 -3.04271 v 2.36368 c 0,2.88396 -0.23182,3.56621 -1.34358,3.95376 -0.58121,0.20265 -4.62758,0.29714 -12.72738,0.29714 -12.83994,0 -13.52338,-0.0681 -13.84051,-1.37201 -0.0815,-0.33702 -0.11584,-5.85111 -0.0754,-12.25403 l 0.0734,-11.64167 12.63386,-0.0687 12.63385,-0.0687 v -2.90783 -2.90783 h -12.7 -12.7 v -12.30319 -12.30312 h 12.03854 c 14.418,0 13.09688,-0.38698 13.09688,3.83646 v 2.77812 h 3.19722 3.1967 l -0.0884,-4.56406 c -0.10015,-5.19202 -0.35759,-6.09715 -2.03399,-7.13962 l -0.96427,-0.59944 -20.70365,-0.0724 z m -91.28125,0.0129 v 2.91042 2.91042 h 1.07178 c 1.60089,0 2.47486,0.57598 3.09282,2.0376 0.44278,1.04721 4.4223,11.69321 22.0617,59.02223 0.22063,0.59197 0.2894,0.60147 3.81682,0.52917 l 3.59204,-0.0734 10.95851,-29.36875 c 6.02689,-16.15282 11.16057,-29.8238 11.40859,-30.37954 0.76489,-1.7138 1.04135,-1.76733 9.07336,-1.76733 h 7.15822 l -0.0672,27.84739 -0.0677,27.8474 -3.10886,0.0744 -3.10885,0.0744 v 2.90215 2.90163 h 9.525 9.525 v -2.90163 -2.90215 l -3.10886,-0.0744 -3.10885,-0.0744 -0.0672,-27.8474 -0.0672,-27.84739 h 3.17604 3.17603 v -2.91042 -2.91042 l -15.1474,0.001 c -9.75357,9.5e-4 -15.50328,0.0998 -16.1468,0.27853 -1.23346,0.34253 -2.70934,1.60623 -3.35174,2.8696 -0.95034,1.86895 -17.84855,48.38855 -18.98748,52.27122 -0.63884,2.17789 -1.21224,4.01104 -1.27434,4.07314 -0.13838,0.13839 -0.13658,0.1444 -1.32188,-3.93154 -0.9615,-3.30635 -17.55365,-49.04411 -18.83916,-51.93172 -0.78383,-1.76067 -2.00779,-2.95324 -3.43908,-3.3507 -0.54967,-0.15265 -2.2198,-0.27771 -3.71139,-0.27853 z m 235.34687,0 c -2.05787,0 -2.51354,0.072 -2.51354,0.39688 0,0.28664 0.29398,0.39687 1.05833,0.39687 h 1.05834 v 2.51355 c 0,2.05787 0.0719,2.51354 0.39687,2.51354 0.32499,0 0.39688,-0.45567 0.39688,-2.51354 v -2.51355 h 1.05833 c 0.76435,0 1.05833,-0.11023 1.05833,-0.39687 0,-0.32487 -0.45566,-0.39688 -2.51354,-0.39688 z m -304.98034,18.13585 c -2.80465,-0.0239 -5.78551,0.18206 -7.62486,0.60513 -2.74761,0.63198 -5.72445,1.92483 -7.08897,3.07837 -1.56109,1.31969 -1.90686,2.37403 -1.90686,5.81876 v 3.05356 h 3.04271 3.0427 v -1.94872 c 0,-1.57737 0.10591,-2.0833 0.55449,-2.65358 2.0818,-2.64658 10.2603,-3.56923 15.21304,-1.71618 1.98861,0.74404 3.83061,2.49178 4.72374,4.4819 0.85325,1.90134 1.5313,5.47046 1.41695,7.45743 l -0.0801,1.39061 -5.82083,0.16485 c -3.20147,0.0908 -6.7138,0.3079 -7.80521,0.48214 -12.40396,1.98019 -18.52084,7.25733 -18.52084,15.97887 0,3.66358 1.41671,7.14783 3.90106,9.59528 2.14127,2.10947 5.87385,3.85784 9.4604,4.43073 0.43657,0.0698 2.10345,0.0926 3.70417,0.0507 3.16556,-0.0828 5.6111,-0.72466 8.20208,-2.15233 1.82954,-1.00811 5.38785,-4.662 6.35413,-6.52466 l 0.78962,-1.52187 0.13798,2.98173 c 0.25175,5.43984 1.42418,6.28023 8.76173,6.28023 h 3.40342 v -2.75177 -2.75177 l -2.37403,-0.0925 c -2.04687,-0.0797 -2.45721,-0.17575 -2.97656,-0.69504 l -0.60254,-0.60346 -0.14623,-14.74329 c -0.16243,-16.36686 -0.12756,-16.02582 -2.01951,-19.89956 -1.8087,-3.70318 -5.31847,-6.23667 -10.13738,-7.3179 -1.34813,-0.30248 -3.42292,-0.45996 -5.60431,-0.47852 z m 53.38123,5.69939 c 3.69946,-0.004 7.23628,1.4644 10.03453,4.31085 2.88449,2.93416 4.55544,6.75878 5.1847,11.86646 1.27426,10.34335 -3.44273,19.80934 -11.04119,22.15627 -7.89499,2.43851 -15.44762,-1.76894 -18.37614,-10.23762 -2.1944,-6.34585 -1.79236,-14.17009 1.0232,-19.91661 1.27738,-2.60713 3.97518,-5.34618 6.46472,-6.56343 2.21211,-1.08159 4.49051,-1.61377 6.71018,-1.61592 z m -46.40077,19.02726 h 4.52427 l -0.16486,2.84427 c -0.20312,3.51336 -0.67075,5.32374 -2.18745,8.46925 -1.94183,4.02713 -5.13696,7.03261 -8.76537,8.24498 -2.9569,0.988 -7.19154,0.63301 -10.0092,-0.83923 -1.3557,-0.70836 -3.04459,-2.55079 -3.78324,-4.12636 -0.58762,-1.25341 -0.70118,-1.86112 -0.69918,-3.74499 0.003,-2.5996 0.5207,-4.02211 2.09858,-5.76864 3.08712,-3.41707 9.30074,-5.07928 18.98645,-5.07928 z"
         id="path872-0"
         inkscape:connector-curvature="0" />
      <path
         style="fill:#4c4d4f;fill-opacity:1;stroke-width:1.79423"
         d="m 76.398968,29.103514 c -2.57437,0 -4.68871,1.26673 -5.87769,3.52174 l -0.72398,1.37305 v 29.36875 c 0,32.31814 -0.0926,30.51712 1.66553,32.46313 1.09709,1.21434 2.04753,1.75565 3.58015,2.03915 0.60733,0.11255 1.52105,0.15875 2.03037,0.10336 0.53989,-0.0587 13.0462,-6.13672 29.991452,-14.57534 31.55597,-15.71468 30.57512,-15.15931 31.34537,-17.73019 0.76697,-2.55989 -0.0702,-5.66508 -1.89911,-7.04401 -0.45789,-0.34524 -13.84184,-7.12812 -29.74237,-15.0735 C 79.061898,29.704774 77.797608,29.103514 76.398968,29.103514 Z"
         id="path868"
         inkscape:connector-curvature="0" />
      <path
         style="fill:#ffde00;fill-opacity:1;stroke-width:1.79423"
         d="m 91.115155,53.124103 v 3.704166 3.704175 H 87.54328 83.971405 v 2.513542 2.513541 h 3.571875 3.571875 v 3.571875 3.571875 h 2.513541 2.513542 v -3.571875 -3.571875 h 3.704167 3.704165 v -2.513541 -2.513542 h -3.704165 -3.704167 v -3.704175 -3.704166 h -2.513542 z"
         id="path872-8"
         inkscape:connector-curvature="0" />
    </g>
  </g>
</svg>
